<?xml version="1.0" standalone="no"?><!DOCTYPE svg PUBLIC "-//W3C//DTD SVG 1.1//EN" "http://www.w3.org/Graphics/SVG/1.1/DTD/svg11.dtd"><svg class="icon" width="200px" height="200.00px" viewBox="0 0 1024 1024" version="1.1" xmlns="http://www.w3.org/2000/svg"><path d="M135.127893 322.816v373.248H178.775893V426.24a383.104 383.104 0 0 0-2.090666-51.2h1.664a124.074667 124.074667 0 0 0 11.861333 23.338667l191.872 297.685333h53.632V322.816H392.109227v262.485333a394.965333 394.965333 0 0 0 2.645333 54.869334H393.815893a385.408 385.408 0 0 0-15.146666-24.96L191.831893 322.816z m397.44 0v373.248h198.4l0.213334-40.96h-153.984v-129.365333h134.741333V486.4h-134.741333V362.325333h144.597333v-39.509333z m232.021334 0v39.509333h107.264v333.738667h43.605333V362.368H1024.00256v-39.509333zM27.863893 642.858667a27.434667 27.434667 0 0 0-19.456 8.789333 28.672 28.672 0 0 0-8.405333 20.48 28.245333 28.245333 0 0 0 8.405333 20.48 27.648 27.648 0 0 0 20.48 8.576 28.245333 28.245333 0 0 0 20.48-8.576 28.032 28.032 0 0 0 8.576-20.48 28.458667 28.458667 0 0 0-8.576-20.48 28.032 28.032 0 0 0-20.48-8.789333 27.434667 27.434667 0 0 0-1.024 0z" /></svg>